<svg width="1440" height="900" viewBox="0 0 1440 900" fill="none" xmlns="http://www.w3.org/2000/svg">
<rect width="1440" height="900" fill="#11130F"/><circle cx="1300" cy="0" r="330" fill="#B7F78D" opacity=".035"/><line x1="80" y1="92" x2="1360" y2="92" stroke="#34362F"/><text x="80" y="58" fill="#F4F1E8" font-family="Arial" font-size="15" font-weight="700">Alex Morgan</text><text x="1135" y="58" fill="#7C8075" font-family="Arial" font-size="12">About     Projects     Contact</text>
<circle cx="93" cy="175" r="5" fill="#B7F78D"/><text x="110" y="179" fill="#8F9385" font-family="Arial" font-size="12">Available for interesting work</text>
<text x="80" y="290" fill="#F4F1E8" font-family="Arial" font-size="88" font-weight="700" letter-spacing="-5"><tspan x="80">Alex</tspan><tspan x="80" dy="82">Morgan</tspan></text><text x="80" y="490" fill="#CBC8BE" font-family="Arial" font-size="25"><tspan x="80">Software developer building with</tspan><tspan x="80" dy="35">TypeScript, React, Node.js</tspan></text><text x="80" y="585" fill="#7B7F73" font-family="Arial" font-size="16"><tspan x="80">I build clean, reliable products with attention to usability,</tspan><tspan x="80" dy="27">performance, and the details that turn code into a product.</tspan></text><text x="80" y="664" fill="#85897E" font-family="Arial" font-size="12">⌖ Casablanca, Morocco      ◉ @alexmorgan      ◎ Website</text>
<path d="M1035 185C1083 139 1192 143 1244 199C1296 255 1284 365 1229 416C1174 467 1069 457 1018 405C967 353 987 231 1035 185Z" stroke="#3E4038" stroke-width="2"/><path d="M1058 206C1097 168 1183 171 1224 214C1265 258 1255 345 1211 385C1168 426 1086 418 1046 377C1006 336 1019 244 1058 206Z" fill="#EAE7DD"/><text x="1100" y="316" fill="#12140F" font-family="Arial" font-size="54" font-weight="700">AM</text>
<line x1="80" y1="744" x2="1360" y2="744" stroke="#34362F"/><text x="80" y="794" fill="#65695F" font-family="Arial" font-size="11" letter-spacing="1">01 / ABOUT</text><text x="360" y="810" fill="#F4F1E8" font-family="Arial" font-size="42" font-weight="600" letter-spacing="-2">A developer who cares about the product,</text><text x="360" y="856" fill="#F4F1E8" font-family="Arial" font-size="42" font-weight="600" letter-spacing="-2">not just the code.</text>
</svg>
